<?xml version="1.0" encoding="UTF-8" standalone="no"?>
<svg
   xmlns:dc="http://purl.org/dc/elements/1.1/"
   xmlns:cc="http://creativecommons.org/ns#"
   xmlns:rdf="http://www.w3.org/1999/02/22-rdf-syntax-ns#"
   xmlns:svg="http://www.w3.org/2000/svg"
   xmlns="http://www.w3.org/2000/svg"
   xmlns:sodipodi="http://sodipodi.sourceforge.net/DTD/sodipodi-0.dtd"
   xmlns:inkscape="http://www.inkscape.org/namespaces/inkscape"
   sodipodi:docname="normalization.svg"
   inkscape:version="0.92.3 (2405546, 2018-03-11)"
   id="svg8"
   version="1.1"
   viewBox="0 0 244.33815 103.89984"
   height="103.89984mm"
   width="244.33815mm">
  <sodipodi:namedview
     showguides="false"
     inkscape:snap-to-guides="false"
     inkscape:snap-grids="false"
     showgrid="false"
     inkscape:document-rotation="0"
     inkscape:current-layer="layer10"
     inkscape:document-units="mm"
     inkscape:cy="505.61473"
     inkscape:cx="176.35635"
     inkscape:zoom="0.66772837"
     inkscape:pageshadow="2"
     inkscape:pageopacity="0.0"
     borderopacity="1.0"
     bordercolor="#666666"
     pagecolor="#ffffff"
     id="base"
     fit-margin-top="0"
     fit-margin-left="0"
     fit-margin-right="0"
     fit-margin-bottom="0" />
  <defs
     id="defs2">
    <rect
       x="73.701378"
       y="98.664749"
       width="140.27036"
       height="31.303272"
       id="rect917" />
    <rect
       x="96.944633"
       y="32.501667"
       width="66.684456"
       height="26.897932"
       id="rect905" />
    <rect
       x="5.3453908"
       y="18.976135"
       width="15.065323"
       height="64.178627"
       id="rect879" />
    <rect
       x="52.117558"
       y="84.457169"
       width="43.297665"
       height="19.510675"
       id="rect873" />
    <rect
       id="rect899"
       height="19.510675"
       width="43.297665"
       y="84.457169"
       x="52.117558" />
    <rect
       id="rect901"
       height="64.178627"
       width="15.065323"
       y="18.976135"
       x="5.3453908" />
    <rect
       id="rect913"
       height="26.897932"
       width="66.684456"
       y="32.501667"
       x="96.944633" />
  </defs>
  <metadata
     id="metadata5">
    <rdf:RDF>
      <cc:Work
         rdf:about="">
        <dc:format>image/svg+xml</dc:format>
        <dc:type
           rdf:resource="http://purl.org/dc/dcmitype/StillImage" />
        <dc:title></dc:title>
      </cc:Work>
    </rdf:RDF>
  </metadata>
  <g
     inkscape:label="first axis"
     id="layer8"
     inkscape:groupmode="layer">
    <path
       inkscape:connector-curvature="0"
       style="display:inline;fill:none;stroke:#000000;stroke-width:0.26458299px;stroke-linecap:butt;stroke-linejoin:miter;stroke-opacity:1"
       d="M 20.410714,15.308036 V 83.15476"
       id="path867"
       transform="translate(-10.217367,-13.883187)" />
    <path
       inkscape:connector-curvature="0"
       style="display:inline;fill:none;stroke:#000000;stroke-width:0.26458299px;stroke-linecap:butt;stroke-linejoin:miter;stroke-opacity:1"
       d="M 15.497024,79.374999 H 129.83482"
       id="path869"
       transform="translate(-10.217367,-13.883187)" />
    <text
       xml:space="preserve"
       id="text871"
       style="display:inline;font-style:normal;font-weight:normal;font-size:10.58329964px;line-height:1.25;font-family:sans-serif;letter-spacing:0px;word-spacing:0px;white-space:pre;shape-inside:url(#rect873);fill:#000000;fill-opacity:1;stroke:none"
       transform="translate(1.542492,-15.486804)"><tspan
         id="tspan16"
         y="93.82077"
         x="52.117188"><tspan
           id="tspan14"
           style="font-style:normal;font-variant:normal;font-weight:normal;font-stretch:normal;font-family:'TeX Gyre Bonum Math';-inkscape-font-specification:'TeX Gyre Bonum Math'">m/z</tspan></tspan></text>
    <text
       xml:space="preserve"
       id="text877"
       style="display:inline;font-style:normal;font-weight:normal;font-size:10.58329964px;line-height:1.25;font-family:sans-serif;letter-spacing:0px;word-spacing:0px;white-space:pre;shape-inside:url(#rect879);fill:#000000;fill-opacity:1;stroke:none"
       transform="translate(-5.6737851,2.152985)"><tspan
         id="tspan21"
         y="28.340302"
         x="5.3457031"><tspan
           id="tspan19"
           style="font-style:normal;font-variant:normal;font-weight:normal;font-stretch:normal;font-family:'TeX Gyre Bonum Math';-inkscape-font-specification:'TeX Gyre Bonum Math'">I</tspan></tspan></text>
    <text
       y="-0.7750358"
       x="22.755724"
       style="display:inline;font-style:normal;font-weight:normal;font-size:10.58329964px;line-height:1.25;font-family:sans-serif;letter-spacing:0px;word-spacing:0px;white-space:pre;shape-inside:url(#rect879);fill:#000000;fill-opacity:1;stroke:none"
       id="text4768"
       xml:space="preserve"
       transform="translate(-10.217367,-13.883187)"><tspan
         style="font-style:normal;font-variant:normal;font-weight:normal;font-stretch:normal;font-family:'TeX Gyre Bonum Math';-inkscape-font-specification:'TeX Gyre Bonum Math'"
         x="28.101425"
         y="27.565268"
         id="tspan4766">1</tspan></text>
    <text
       xml:space="preserve"
       id="text4772"
       style="display:inline;font-style:normal;font-weight:normal;font-size:10.58329964px;line-height:1.25;font-family:sans-serif;letter-spacing:0px;word-spacing:0px;white-space:pre;shape-inside:url(#rect879);fill:#000000;fill-opacity:1;stroke:none"
       x="22.755724"
       y="-0.7750358"
       transform="translate(-10.217367,-13.883187)"><tspan
         id="tspan4770"
         y="27.565268"
         x="28.101425"
         style="font-style:normal;font-variant:normal;font-weight:normal;font-stretch:normal;font-family:'TeX Gyre Bonum Math';-inkscape-font-specification:'TeX Gyre Bonum Math'">1</tspan></text>
    <circle
       r="8.4056034"
       cy="24.620924"
       cx="31.511566"
       id="path4778"
       style="display:inline;opacity:1;fill:#ffe99a;fill-opacity:0.29702974;stroke:#000000;stroke-width:0.56499994;stroke-opacity:1"
       transform="translate(-10.217367,-13.883187)" />
  </g>
  <g
     style="display:none"
     inkscape:label="first intensities"
     id="layer9"
     inkscape:groupmode="layer">
    <path
       inkscape:connector-curvature="0"
       style="display:inline;fill:#fafafa;fill-opacity:1;stroke:#000000;stroke-width:0.565;stroke-linecap:butt;stroke-linejoin:miter;stroke-miterlimit:4;stroke-dasharray:none;stroke-opacity:1"
       d="m 20.847023,76.973622 h 17.639789 c 0.890898,-7.038097 1.31376,-20.984143 2.672694,-21.114292 1.67141,0.0091 1.853484,14.102212 2.780226,21.153318 h 20.739494 c 1.737252,-17.296438 2.851368,-51.685247 5.137459,-51.59213 2.84875,-0.106223 4.667572,34.462812 6.761184,51.835332 l 22.804343,-0.05186 c 1.617628,-3.818562 3.035378,-11.305183 4.852898,-11.455686 2.04841,0.03414 4.05748,7.269478 5.98912,11.382785 l 19.47064,-0.121009"
       id="path883"
       sodipodi:nodetypes="ccccccccccc"
       transform="translate(-10.217367,-13.883187)" />
  </g>
  <g
     style="display:inline"
     inkscape:label="second axis"
     id="layer6"
     inkscape:groupmode="layer">
    <path
       inkscape:connector-curvature="0"
       id="path885"
       d="M 145.13142,15.470688 V 83.317417"
       style="display:inline;fill:none;stroke:#000000;stroke-width:0.26458299px;stroke-linecap:butt;stroke-linejoin:miter;stroke-opacity:1"
       transform="translate(-10.217367,-13.883187)" />
    <path
       inkscape:connector-curvature="0"
       id="path887"
       d="M 140.21773,79.537647 H 254.55552"
       style="display:inline;fill:none;stroke:#000000;stroke-width:0.26458299px;stroke-linecap:butt;stroke-linejoin:miter;stroke-opacity:1"
       transform="translate(-10.217367,-13.883187)" />
    <text
       y="-1.4409657"
       x="136.48056"
       style="font-style:normal;font-weight:normal;font-size:10.58329964px;line-height:1.25;font-family:sans-serif;letter-spacing:0px;word-spacing:0px;white-space:pre;shape-inside:url(#rect899);display:inline;fill:#000000;fill-opacity:1;stroke:none"
       id="text891"
       xml:space="preserve"
       transform="translate(-10.217367,-13.883187)"><tspan
         id="tspan29"
         y="92.379807"
         x="188.59775"><tspan
           id="tspan27"
           style="font-style:normal;font-variant:normal;font-weight:normal;font-stretch:normal;font-family:'TeX Gyre Bonum Math';-inkscape-font-specification:'TeX Gyre Bonum Math'">m/z</tspan></tspan></text>
    <text
       y="16.198822"
       x="129.26428"
       style="font-style:normal;font-weight:normal;font-size:10.58329964px;line-height:1.25;font-family:sans-serif;letter-spacing:0px;word-spacing:0px;white-space:pre;shape-inside:url(#rect901);display:inline;fill:#000000;fill-opacity:1;stroke:none"
       id="text895"
       xml:space="preserve"
       transform="translate(-10.217367,-13.883187)"><tspan
         id="tspan34"
         y="44.539127"
         x="134.60999"><tspan
           id="tspan32"
           style="font-style:normal;font-variant:normal;font-weight:normal;font-stretch:normal;font-family:'TeX Gyre Bonum Math';-inkscape-font-specification:'TeX Gyre Bonum Math'">I</tspan></tspan></text>
    <text
       y="-1.2417876"
       x="151.92184"
       style="font-style:normal;font-weight:normal;font-size:10.58329964px;line-height:1.25;font-family:sans-serif;letter-spacing:0px;word-spacing:0px;white-space:pre;shape-inside:url(#rect879);display:inline;fill:#000000;fill-opacity:1;stroke:none"
       id="text4776"
       xml:space="preserve"
       transform="translate(-10.217367,-13.883187)"><tspan
         style="font-style:normal;font-variant:normal;font-weight:normal;font-stretch:normal;font-family:'TeX Gyre Bonum Math';-inkscape-font-specification:'TeX Gyre Bonum Math'"
         x="157.26755"
         y="27.098513"
         id="tspan4774">2</tspan></text>
    <circle
       style="display:inline;opacity:1;fill:#ffe99a;fill-opacity:0.29702974;stroke:#000000;stroke-width:0.56499994;stroke-opacity:1"
       id="circle4780"
       cx="160.39749"
       cy="24.154169"
       r="8.4056034"
       transform="translate(-10.217367,-13.883187)" />
  </g>
  <g
     style="display:none"
     inkscape:label="second intensities"
     id="layer7"
     inkscape:groupmode="layer">
    <path
       inkscape:connector-curvature="0"
       sodipodi:nodetypes="ccccccccccc"
       id="path897"
       d="m 145.56773,77.136277 h 17.63978 c 0.8909,-7.0381 1.31376,-22.073823 2.6727,-22.203963 1.67141,0.009 1.85348,15.191883 2.78022,22.242983 h 20.7395 c 1.83631,-2.18963 2.85137,-3.34348 5.13746,-3.25037 2.77929,-0.14095 5.15061,1.57386 6.76118,3.49358 l 22.80434,-0.0519 c 1.61763,-3.81857 3.17547,-11.759105 4.99299,-11.909605 2.04841,0.0341 3.91739,7.723395 5.84903,11.836695 l 19.47064,-0.121"
       style="display:inline;fill:#fafafa;fill-opacity:1;stroke:#000000;stroke-width:0.565;stroke-linecap:butt;stroke-linejoin:miter;stroke-miterlimit:4;stroke-dasharray:none;stroke-opacity:1"
       transform="translate(-10.217367,-13.883187)" />
  </g>
  <g
     style="display:none"
     inkscape:label="tic1 lt tic2"
     id="layer5"
     inkscape:groupmode="layer">
    <g
       style="display:inline;fill:#c50000;fill-opacity:1"
       transform="translate(-8.2361471,0.77784)"
       id="g4701">
      <g
         style="font-style:normal;font-variant:normal;font-weight:normal;font-stretch:normal;letter-spacing:normal;word-spacing:normal;text-anchor:start;fill:#c50000;fill-opacity:1;fill-rule:evenodd;stroke:#000000;stroke-linecap:butt;stroke-linejoin:miter;stroke-miterlimit:10.43299961;stroke-dasharray:none;stroke-dashoffset:0;stroke-opacity:1"
         id="g4699"
         transform="matrix(0.3,0,0,-0.3,-52.5,222.75)"
         xml:space="preserve"
         stroke-miterlimit="10.433"
         font-style="normal"
         font-variant="normal"
         font-weight="normal"
         font-stretch="normal"
         font-size-adjust="none"
         letter-spacing="normal"
         word-spacing="normal"><path
           style="fill:#c50000;fill-opacity:1;stroke-width:0"
           inkscape:connector-curvature="0"
           d="m 488.71,439.93 h -30.46 l -0.93,-11.22 h 1.25 c 0.68,8.04 1.43,9.68 8.95,9.68 0.91,0 2.2,0 2.7,-0.11 1.05,-0.19 1.05,-0.74 1.05,-1.89 v -26.25 c 0,-1.71 0,-2.39 -5.23,-2.39 h -2 v -1.55 c 2.04,0.16 7.12,0.16 9.42,0.16 2.29,0 7.42,0 9.47,-0.16 v 1.55 h -2 c -5.24,0 -5.24,0.68 -5.24,2.39 v 26.25 c 0,1 0,1.7 0.91,1.89 0.54,0.11 1.89,0.11 2.84,0.11 7.52,0 8.27,-1.64 8.95,-9.68 h 1.25 z"
           id="path4681" /><path
           style="fill:#c50000;fill-opacity:1;stroke-width:0"
           inkscape:connector-curvature="0"
           d="m 502.72,436.34 v 0.16 l 0.01,0.16 v 0.15 l 0.01,0.15 0.01,0.13 0.01,0.13 0.02,0.13 0.03,0.11 0.03,0.12 0.04,0.1 0.05,0.1 0.05,0.09 0.06,0.09 0.08,0.08 0.08,0.08 0.09,0.07 0.11,0.06 0.12,0.06 0.06,0.03 0.07,0.03 0.07,0.02 0.07,0.03 0.08,0.02 0.08,0.02 0.08,0.02 0.09,0.02 0.09,0.02 0.1,0.02 0.1,0.02 0.11,0.01 0.1,0.01 0.12,0.02 0.11,0.01 0.13,0.01 0.12,0.01 0.13,0.01 0.14,0.01 0.14,0.01 h 0.15 l 0.15,0.01 h 0.15 l 0.16,0.01 h 0.17 0.17 0.17 0.19 1.29 v 1.55 c -1.75,-0.16 -5.68,-0.16 -7.57,-0.16 -1.94,0 -5.88,0 -7.63,0.16 v -1.55 h 1.3 c 3.93,0 4.09,-0.54 4.09,-2.34 v -26.25 c 0,-1.8 -0.16,-2.34 -4.09,-2.34 h -1.3 v -1.55 c 1.75,0.16 5.69,0.16 7.58,0.16 1.94,0 5.87,0 7.62,-0.16 v 1.55 h -1.29 c -3.94,0 -4.1,0.54 -4.1,2.34 z"
           id="path4683" /><path
           style="fill:#c50000;fill-opacity:1;stroke-width:0"
           inkscape:connector-curvature="0"
           d="m 512.32,423.23 0.02,-0.96 0.07,-0.94 0.11,-0.93 0.16,-0.91 0.2,-0.89 0.24,-0.87 0.28,-0.85 0.32,-0.83 0.36,-0.81 0.39,-0.78 0.43,-0.76 0.46,-0.74 0.49,-0.7 0.52,-0.68 0.55,-0.66 0.59,-0.62 0.6,-0.59 0.64,-0.56 0.66,-0.53 0.68,-0.5 0.7,-0.46 0.73,-0.43 0.74,-0.39 0.77,-0.35 0.78,-0.32 0.79,-0.28 0.82,-0.23 0.82,-0.2 0.84,-0.15 0.84,-0.11 0.86,-0.07 0.87,-0.02 c 8.12,0 13,6.92 13,12.7 0,0.5 0,0.84 -0.65,0.84 -0.54,0 -0.54,-0.29 -0.59,-0.79 -0.41,-7.13 -5.73,-11.21 -11.17,-11.21 -3.03,0 -12.8,1.69 -12.8,16.53 0,14.91 9.72,16.6 12.75,16.6 5.44,0 9.88,-4.53 10.86,-11.82 0.11,-0.68 0.11,-0.84 0.8,-0.84 0.8,0 0.8,0.16 0.8,1.2 v 11.8 c 0,0.86 0,1.2 -0.55,1.2 -0.19,0 -0.39,0 -0.8,-0.59 l -2.48,-3.69 c -1.85,1.8 -4.39,4.28 -9.17,4.28 -9.32,0 -17.33,-7.92 -17.33,-18.09 z"
           id="path4685" /><path
           style="fill:#c50000;fill-opacity:1;stroke-width:0"
           inkscape:connector-curvature="0"
           d="m 557.19,420.92 v 0.04 0.04 0.05 0.04 0.03 0.04 0.04 0.03 l -0.01,0.04 v 0.03 0.03 0.03 0.03 l -0.01,0.03 v 0.03 0.02 l -0.01,0.03 v 0.02 l -0.01,0.03 v 0.02 l -0.02,0.04 -0.01,0.04 -0.02,0.03 -0.02,0.03 -0.02,0.03 -0.02,0.03 -0.03,0.02 -0.03,0.02 -0.03,0.02 -0.04,0.01 -0.04,0.01 -0.05,0.02 h -0.02 -0.02 l -0.03,0.01 h -0.03 l -0.02,0.01 h -0.03 -0.03 -0.03 -0.03 l -0.04,0.01 h -0.03 -0.04 -0.03 -0.04 -0.04 -0.04 -0.04 -0.05 -0.04 -0.04 c -2.24,-2.2 -5.4,-2.23 -6.83,-2.23 v -1.25 c 0.84,0 3.14,0 5.04,0.97 v -17.77 c 0,-1.16 0,-1.61 -3.48,-1.61 h -1.31 v -1.25 c 0.62,0.03 4.9,0.14 6.2,0.14 1.08,0 5.47,-0.11 6.23,-0.14 v 1.25 h -1.32 c -3.49,0 -3.49,0.45 -3.49,1.61 z"
           id="path4687" /><path
           style="fill:#c50000;fill-opacity:1;stroke-width:0"
           inkscape:connector-curvature="0"
           d="m 615.27,431.01 0.05,0.03 0.06,0.03 0.05,0.02 0.05,0.03 0.05,0.03 0.05,0.03 0.05,0.02 0.04,0.03 0.05,0.03 0.04,0.03 0.04,0.03 0.04,0.02 0.03,0.03 0.04,0.03 0.03,0.03 0.03,0.04 0.03,0.03 0.03,0.03 0.02,0.03 0.03,0.04 0.02,0.03 0.02,0.04 0.02,0.04 0.02,0.04 0.01,0.04 0.01,0.04 0.01,0.04 0.01,0.04 0.01,0.05 v 0.05 l 0.01,0.04 v 0.06 c 0,0.54 -0.45,1 -1,1 -0.14,0 -0.25,0 -0.89,-0.35 l -27.61,-13.01 c -0.55,-0.25 -0.94,-0.5 -0.94,-1.1 0,-0.59 0.39,-0.84 0.94,-1.09 l 27.61,-13 c 0.64,-0.36 0.75,-0.36 0.89,-0.36 0.55,0 1,0.45 1,1 0,0.55 -0.34,0.8 -0.95,1.09 l -26.16,12.36 z"
           id="path4689" /><path
           style="fill:#c50000;fill-opacity:1;stroke-width:0"
           inkscape:connector-curvature="0"
           d="m 667.5,439.93 h -30.45 l -0.94,-11.22 h 1.25 c 0.69,8.04 1.44,9.68 8.96,9.68 0.9,0 2.2,0 2.7,-0.11 1.05,-0.19 1.05,-0.74 1.05,-1.89 v -26.25 c 0,-1.71 0,-2.39 -5.24,-2.39 h -2 v -1.55 c 2.05,0.16 7.13,0.16 9.42,0.16 2.3,0 7.43,0 9.47,-0.16 v 1.55 h -2 c -5.23,0 -5.23,0.68 -5.23,2.39 v 26.25 c 0,1 0,1.7 0.91,1.89 0.54,0.11 1.88,0.11 2.84,0.11 7.51,0 8.26,-1.64 8.95,-9.68 h 1.25 z"
           id="path4691" /><path
           style="fill:#c50000;fill-opacity:1;stroke-width:0"
           inkscape:connector-curvature="0"
           d="m 681.52,436.34 v 0.16 0.16 l 0.01,0.15 v 0.15 l 0.02,0.13 0.01,0.13 0.02,0.13 0.03,0.11 0.03,0.12 0.04,0.1 0.04,0.1 0.06,0.09 0.06,0.09 0.07,0.08 0.09,0.08 0.09,0.07 0.11,0.06 0.11,0.06 0.07,0.03 0.06,0.03 0.07,0.02 0.08,0.03 0.08,0.02 0.08,0.02 0.08,0.02 0.09,0.02 0.09,0.02 0.1,0.02 0.1,0.02 0.1,0.01 0.11,0.01 0.11,0.02 0.12,0.01 0.12,0.01 0.13,0.01 0.13,0.01 0.14,0.01 0.14,0.01 h 0.14 l 0.15,0.01 h 0.16 l 0.16,0.01 h 0.16 0.17 0.18 0.18 1.3 v 1.55 c -1.75,-0.16 -5.69,-0.16 -7.58,-0.16 -1.93,0 -5.87,0 -7.62,0.16 v -1.55 H 673 c 3.94,0 4.1,-0.54 4.1,-2.34 v -26.25 c 0,-1.8 -0.16,-2.34 -4.1,-2.34 h -1.29 v -1.55 c 1.75,0.16 5.69,0.16 7.57,0.16 1.94,0 5.88,0 7.63,-0.16 v 1.55 h -1.3 c -3.93,0 -4.09,0.54 -4.09,2.34 z"
           id="path4693" /><path
           style="fill:#c50000;fill-opacity:1;stroke-width:0"
           inkscape:connector-curvature="0"
           d="m 691.11,423.23 0.03,-0.96 0.07,-0.94 0.11,-0.93 0.16,-0.91 0.2,-0.89 0.24,-0.87 0.28,-0.85 0.32,-0.83 0.35,-0.81 0.4,-0.78 0.42,-0.76 0.46,-0.74 0.5,-0.7 0.52,-0.68 0.55,-0.66 0.58,-0.62 0.61,-0.59 0.64,-0.56 0.65,-0.53 0.69,-0.5 0.7,-0.46 0.73,-0.43 0.74,-0.39 0.76,-0.35 0.79,-0.32 0.79,-0.28 0.81,-0.23 0.83,-0.2 0.83,-0.15 0.85,-0.11 0.86,-0.07 0.86,-0.02 c 8.13,0 13,6.92 13,12.7 0,0.5 0,0.84 -0.64,0.84 -0.55,0 -0.55,-0.29 -0.59,-0.79 -0.41,-7.13 -5.74,-11.21 -11.18,-11.21 -3.03,0 -12.79,1.69 -12.79,16.53 0,14.91 9.72,16.6 12.75,16.6 5.44,0 9.87,-4.53 10.86,-11.82 0.11,-0.68 0.11,-0.84 0.8,-0.84 0.79,0 0.79,0.16 0.79,1.2 v 11.8 c 0,0.86 0,1.2 -0.54,1.2 -0.19,0 -0.4,0 -0.8,-0.59 l -2.49,-3.69 c -1.84,1.8 -4.39,4.28 -9.17,4.28 -9.31,0 -17.33,-7.92 -17.33,-18.09 z"
           id="path4695" /><path
           style="fill:#c50000;fill-opacity:1;stroke-width:0"
           inkscape:connector-curvature="0"
           d="m 741.79,405.11 h -1.19 c -0.09,-0.77 -0.45,-2.83 -0.9,-3.18 -0.27,-0.2 -2.95,-0.2 -3.44,-0.2 h -6.42 c 3.66,3.23 4.88,4.2 6.97,5.84 2.58,2.07 4.98,4.22 4.98,7.54 0,4.21 -3.69,6.79 -8.15,6.79 -4.32,0 -7.25,-3.03 -7.25,-6.23 0,-1.78 1.5,-1.96 1.86,-1.96 0.82,0 1.84,0.6 1.84,1.85 0,0.62 -0.25,1.84 -2.06,1.84 1.07,2.47 3.45,3.24 5.09,3.24 3.48,0 5.3,-2.71 5.3,-5.53 0,-3.04 -2.16,-5.44 -3.28,-6.69 l -8.39,-8.3 c -0.36,-0.31 -0.36,-0.39 -0.36,-1.36 h 14.36 z"
           id="path4697" /></g>    </g>
    <g
       id="g4903"
       transform="translate(-8.2361471,0.77784)"
       style="display:inline;fill:#c50000;fill-opacity:1">
      <g
         word-spacing="normal"
         letter-spacing="normal"
         font-size-adjust="none"
         font-stretch="normal"
         font-weight="normal"
         font-variant="normal"
         font-style="normal"
         stroke-miterlimit="10.433"
         xml:space="preserve"
         transform="matrix(0.3,0,0,-0.3,-52.5,222.75)"
         id="g4901"
         style="font-style:normal;font-variant:normal;font-weight:normal;font-stretch:normal;letter-spacing:normal;word-spacing:normal;text-anchor:start;fill:#c50000;fill-opacity:1;fill-rule:evenodd;stroke:#000000;stroke-linecap:butt;stroke-linejoin:miter;stroke-miterlimit:10.43299961;stroke-dasharray:none;stroke-dashoffset:0;stroke-opacity:1"><path
           id="path4883"
           d="m 488.71,439.93 h -30.46 l -0.93,-11.22 h 1.25 c 0.68,8.04 1.43,9.68 8.95,9.68 0.91,0 2.2,0 2.7,-0.11 1.05,-0.19 1.05,-0.74 1.05,-1.89 v -26.25 c 0,-1.71 0,-2.39 -5.23,-2.39 h -2 v -1.55 c 2.04,0.16 7.12,0.16 9.42,0.16 2.29,0 7.42,0 9.47,-0.16 v 1.55 h -2 c -5.24,0 -5.24,0.68 -5.24,2.39 v 26.25 c 0,1 0,1.7 0.91,1.89 0.54,0.11 1.89,0.11 2.84,0.11 7.52,0 8.27,-1.64 8.95,-9.68 h 1.25 z"
           inkscape:connector-curvature="0"
           style="fill:#c50000;fill-opacity:1;stroke-width:0" /><path
           id="path4885"
           d="m 502.72,436.34 v 0.16 l 0.01,0.16 v 0.15 l 0.01,0.15 0.01,0.13 0.01,0.13 0.02,0.13 0.03,0.11 0.03,0.12 0.04,0.1 0.05,0.1 0.05,0.09 0.06,0.09 0.08,0.08 0.08,0.08 0.09,0.07 0.11,0.06 0.12,0.06 0.06,0.03 0.07,0.03 0.07,0.02 0.07,0.03 0.08,0.02 0.08,0.02 0.08,0.02 0.09,0.02 0.09,0.02 0.1,0.02 0.1,0.02 0.11,0.01 0.1,0.01 0.12,0.02 0.11,0.01 0.13,0.01 0.12,0.01 0.13,0.01 0.14,0.01 0.14,0.01 h 0.15 l 0.15,0.01 h 0.15 l 0.16,0.01 h 0.17 0.17 0.17 0.19 1.29 v 1.55 c -1.75,-0.16 -5.68,-0.16 -7.57,-0.16 -1.94,0 -5.88,0 -7.63,0.16 v -1.55 h 1.3 c 3.93,0 4.09,-0.54 4.09,-2.34 v -26.25 c 0,-1.8 -0.16,-2.34 -4.09,-2.34 h -1.3 v -1.55 c 1.75,0.16 5.69,0.16 7.58,0.16 1.94,0 5.87,0 7.62,-0.16 v 1.55 h -1.29 c -3.94,0 -4.1,0.54 -4.1,2.34 z"
           inkscape:connector-curvature="0"
           style="fill:#c50000;fill-opacity:1;stroke-width:0" /><path
           id="path4887"
           d="m 512.32,423.23 0.02,-0.96 0.07,-0.94 0.11,-0.93 0.16,-0.91 0.2,-0.89 0.24,-0.87 0.28,-0.85 0.32,-0.83 0.36,-0.81 0.39,-0.78 0.43,-0.76 0.46,-0.74 0.49,-0.7 0.52,-0.68 0.55,-0.66 0.59,-0.62 0.6,-0.59 0.64,-0.56 0.66,-0.53 0.68,-0.5 0.7,-0.46 0.73,-0.43 0.74,-0.39 0.77,-0.35 0.78,-0.32 0.79,-0.28 0.82,-0.23 0.82,-0.2 0.84,-0.15 0.84,-0.11 0.86,-0.07 0.87,-0.02 c 8.12,0 13,6.92 13,12.7 0,0.5 0,0.84 -0.65,0.84 -0.54,0 -0.54,-0.29 -0.59,-0.79 -0.41,-7.13 -5.73,-11.21 -11.17,-11.21 -3.03,0 -12.8,1.69 -12.8,16.53 0,14.91 9.72,16.6 12.75,16.6 5.44,0 9.88,-4.53 10.86,-11.82 0.11,-0.68 0.11,-0.84 0.8,-0.84 0.8,0 0.8,0.16 0.8,1.2 v 11.8 c 0,0.86 0,1.2 -0.55,1.2 -0.19,0 -0.39,0 -0.8,-0.59 l -2.48,-3.69 c -1.85,1.8 -4.39,4.28 -9.17,4.28 -9.32,0 -17.33,-7.92 -17.33,-18.09 z"
           inkscape:connector-curvature="0"
           style="fill:#c50000;fill-opacity:1;stroke-width:0" /><path
           id="path4889"
           d="m 557.19,420.92 v 0.04 0.04 0.05 0.04 0.03 0.04 0.04 0.03 l -0.01,0.04 v 0.03 0.03 0.03 0.03 l -0.01,0.03 v 0.03 0.02 l -0.01,0.03 v 0.02 l -0.01,0.03 v 0.02 l -0.02,0.04 -0.01,0.04 -0.02,0.03 -0.02,0.03 -0.02,0.03 -0.02,0.03 -0.03,0.02 -0.03,0.02 -0.03,0.02 -0.04,0.01 -0.04,0.01 -0.05,0.02 h -0.02 -0.02 l -0.03,0.01 h -0.03 l -0.02,0.01 h -0.03 -0.03 -0.03 -0.03 l -0.04,0.01 h -0.03 -0.04 -0.03 -0.04 -0.04 -0.04 -0.04 -0.05 -0.04 -0.04 c -2.24,-2.2 -5.4,-2.23 -6.83,-2.23 v -1.25 c 0.84,0 3.14,0 5.04,0.97 v -17.77 c 0,-1.16 0,-1.61 -3.48,-1.61 h -1.31 v -1.25 c 0.62,0.03 4.9,0.14 6.2,0.14 1.08,0 5.47,-0.11 6.23,-0.14 v 1.25 h -1.32 c -3.49,0 -3.49,0.45 -3.49,1.61 z"
           inkscape:connector-curvature="0"
           style="fill:#c50000;fill-opacity:1;stroke-width:0" /><path
           id="path4891"
           d="m 615.27,431.01 0.05,0.03 0.06,0.03 0.05,0.02 0.05,0.03 0.05,0.03 0.05,0.03 0.05,0.02 0.04,0.03 0.05,0.03 0.04,0.03 0.04,0.03 0.04,0.02 0.03,0.03 0.04,0.03 0.03,0.03 0.03,0.04 0.03,0.03 0.03,0.03 0.02,0.03 0.03,0.04 0.02,0.03 0.02,0.04 0.02,0.04 0.02,0.04 0.01,0.04 0.01,0.04 0.01,0.04 0.01,0.04 0.01,0.05 v 0.05 l 0.01,0.04 v 0.06 c 0,0.54 -0.45,1 -1,1 -0.14,0 -0.25,0 -0.89,-0.35 l -27.61,-13.01 c -0.55,-0.25 -0.94,-0.5 -0.94,-1.1 0,-0.59 0.39,-0.84 0.94,-1.09 l 27.61,-13 c 0.64,-0.36 0.75,-0.36 0.89,-0.36 0.55,0 1,0.45 1,1 0,0.55 -0.34,0.8 -0.95,1.09 l -26.16,12.36 z"
           inkscape:connector-curvature="0"
           style="fill:#c50000;fill-opacity:1;stroke-width:0" /><path
           id="path4893"
           d="m 667.5,439.93 h -30.45 l -0.94,-11.22 h 1.25 c 0.69,8.04 1.44,9.68 8.96,9.68 0.9,0 2.2,0 2.7,-0.11 1.05,-0.19 1.05,-0.74 1.05,-1.89 v -26.25 c 0,-1.71 0,-2.39 -5.24,-2.39 h -2 v -1.55 c 2.05,0.16 7.13,0.16 9.42,0.16 2.3,0 7.43,0 9.47,-0.16 v 1.55 h -2 c -5.23,0 -5.23,0.68 -5.23,2.39 v 26.25 c 0,1 0,1.7 0.91,1.89 0.54,0.11 1.88,0.11 2.84,0.11 7.51,0 8.26,-1.64 8.95,-9.68 h 1.25 z"
           inkscape:connector-curvature="0"
           style="fill:#c50000;fill-opacity:1;stroke-width:0" /><path
           id="path4895"
           d="m 681.52,436.34 v 0.16 0.16 l 0.01,0.15 v 0.15 l 0.02,0.13 0.01,0.13 0.02,0.13 0.03,0.11 0.03,0.12 0.04,0.1 0.04,0.1 0.06,0.09 0.06,0.09 0.07,0.08 0.09,0.08 0.09,0.07 0.11,0.06 0.11,0.06 0.07,0.03 0.06,0.03 0.07,0.02 0.08,0.03 0.08,0.02 0.08,0.02 0.08,0.02 0.09,0.02 0.09,0.02 0.1,0.02 0.1,0.02 0.1,0.01 0.11,0.01 0.11,0.02 0.12,0.01 0.12,0.01 0.13,0.01 0.13,0.01 0.14,0.01 0.14,0.01 h 0.14 l 0.15,0.01 h 0.16 l 0.16,0.01 h 0.16 0.17 0.18 0.18 1.3 v 1.55 c -1.75,-0.16 -5.69,-0.16 -7.58,-0.16 -1.93,0 -5.87,0 -7.62,0.16 v -1.55 H 673 c 3.94,0 4.1,-0.54 4.1,-2.34 v -26.25 c 0,-1.8 -0.16,-2.34 -4.1,-2.34 h -1.29 v -1.55 c 1.75,0.16 5.69,0.16 7.57,0.16 1.94,0 5.88,0 7.63,-0.16 v 1.55 h -1.3 c -3.93,0 -4.09,0.54 -4.09,2.34 z"
           inkscape:connector-curvature="0"
           style="fill:#c50000;fill-opacity:1;stroke-width:0" /><path
           id="path4897"
           d="m 691.11,423.23 0.03,-0.96 0.07,-0.94 0.11,-0.93 0.16,-0.91 0.2,-0.89 0.24,-0.87 0.28,-0.85 0.32,-0.83 0.35,-0.81 0.4,-0.78 0.42,-0.76 0.46,-0.74 0.5,-0.7 0.52,-0.68 0.55,-0.66 0.58,-0.62 0.61,-0.59 0.64,-0.56 0.65,-0.53 0.69,-0.5 0.7,-0.46 0.73,-0.43 0.74,-0.39 0.76,-0.35 0.79,-0.32 0.79,-0.28 0.81,-0.23 0.83,-0.2 0.83,-0.15 0.85,-0.11 0.86,-0.07 0.86,-0.02 c 8.13,0 13,6.92 13,12.7 0,0.5 0,0.84 -0.64,0.84 -0.55,0 -0.55,-0.29 -0.59,-0.79 -0.41,-7.13 -5.74,-11.21 -11.18,-11.21 -3.03,0 -12.79,1.69 -12.79,16.53 0,14.91 9.72,16.6 12.75,16.6 5.44,0 9.87,-4.53 10.86,-11.82 0.11,-0.68 0.11,-0.84 0.8,-0.84 0.79,0 0.79,0.16 0.79,1.2 v 11.8 c 0,0.86 0,1.2 -0.54,1.2 -0.19,0 -0.4,0 -0.8,-0.59 l -2.49,-3.69 c -1.84,1.8 -4.39,4.28 -9.17,4.28 -9.31,0 -17.33,-7.92 -17.33,-18.09 z"
           inkscape:connector-curvature="0"
           style="fill:#c50000;fill-opacity:1;stroke-width:0" /><path
           id="path4899"
           d="m 741.79,405.11 h -1.19 c -0.09,-0.77 -0.45,-2.83 -0.9,-3.18 -0.27,-0.2 -2.95,-0.2 -3.44,-0.2 h -6.42 c 3.66,3.23 4.88,4.2 6.97,5.84 2.58,2.07 4.98,4.22 4.98,7.54 0,4.21 -3.69,6.79 -8.15,6.79 -4.32,0 -7.25,-3.03 -7.25,-6.23 0,-1.78 1.5,-1.96 1.86,-1.96 0.82,0 1.84,0.6 1.84,1.85 0,0.62 -0.25,1.84 -2.06,1.84 1.07,2.47 3.45,3.24 5.09,3.24 3.48,0 5.3,-2.71 5.3,-5.53 0,-3.04 -2.16,-5.44 -3.28,-6.69 l -8.39,-8.3 c -0.36,-0.31 -0.36,-0.39 -0.36,-1.36 h 14.36 z"
           inkscape:connector-curvature="0"
           style="fill:#c50000;fill-opacity:1;stroke-width:0" /></g>    </g>
  </g>
  <g
     style="display:none"
     inkscape:label="Layer 2"
     id="layer2"
     inkscape:groupmode="layer">
    <circle
       r="7.1632643"
       cy="43.93745"
       cx="30.942139"
       id="path4785"
       style="opacity:1;fill:#ff4045;fill-opacity:0.29702974;stroke:#000000;stroke-width:0.26499999;stroke-miterlimit:4;stroke-dasharray:none;stroke-opacity:1" />
    <circle
       style="opacity:1;fill:#ff4045;fill-opacity:0.29702974;stroke:#000000;stroke-width:0.26499999;stroke-miterlimit:4;stroke-dasharray:none;stroke-opacity:1"
       id="circle4787"
       cx="59.521191"
       cy="13.39709"
       r="7.1632643" />
    <circle
       r="7.1632643"
       cy="52.062866"
       cx="94.264351"
       id="circle4789"
       style="opacity:1;fill:#ff4045;fill-opacity:0.29702974;stroke:#000000;stroke-width:0.26499999;stroke-miterlimit:4;stroke-dasharray:none;stroke-opacity:1" />
    <circle
       style="opacity:1;fill:#ff4045;fill-opacity:0.29702974;stroke:#000000;stroke-width:0.26499999;stroke-miterlimit:4;stroke-dasharray:none;stroke-opacity:1"
       id="circle4791"
       cx="155.90544"
       cy="42.256329"
       r="7.1632643" />
    <circle
       r="7.1632643"
       cy="58.78735"
       cx="185.60524"
       id="circle4793"
       style="opacity:1;fill:#ff4045;fill-opacity:0.29702974;stroke:#000000;stroke-width:0.26499999;stroke-miterlimit:4;stroke-dasharray:none;stroke-opacity:1" />
    <circle
       style="opacity:1;fill:#ff4045;fill-opacity:0.29702974;stroke:#000000;stroke-width:0.26499999;stroke-miterlimit:4;stroke-dasharray:none;stroke-opacity:1"
       id="circle4795"
       cx="219.50784"
       cy="51.782681"
       r="7.1632643" />
  </g>
  <g
     style="display:inline"
     inkscape:label="Layer 3"
     id="layer3"
     inkscape:groupmode="layer">
    <path
       sodipodi:nodetypes="cccccccc"
       id="path4798"
       d="m 20.847023,76.973622 17.936972,-0.643896 5.155737,0.682926 c 8.845813,-0.644216 14.54376,-0.239144 20.739494,0 l 11.898643,0.243202 c 8.033255,-0.449092 16.29287,-1.124549 22.804343,-0.05186 l 10.842018,-0.0729 19.47064,-0.121009"
       style="fill:#fafafa;fill-opacity:1;stroke:#000000;stroke-width:0.565;stroke-linecap:butt;stroke-linejoin:miter;stroke-miterlimit:4;stroke-dasharray:none;stroke-opacity:1"
       inkscape:connector-curvature="0"
       transform="translate(-10.217367,-13.883187)" />
    <path
       style="fill:#fafafa;fill-opacity:1;stroke:#000000;stroke-width:0.565;stroke-linecap:butt;stroke-linejoin:miter;stroke-miterlimit:4;stroke-dasharray:none;stroke-opacity:1"
       d="m 145.56773,77.136277 c 5.80636,-0.01471 9.46811,-0.45835 17.63978,0 l 5.45292,0.03902 c 8.22807,-1.314902 13.82633,0 20.7395,0 3.90399,0.205507 7.63167,0.763663 11.89864,0.24321 7.62753,-0.17382 15.41305,-1.295549 22.80434,-0.0519 l 10.84202,-0.07291 c 7.57327,-1.213649 13.42255,-0.559629 19.47064,-0.121"
       id="path4802"
       sodipodi:nodetypes="cccccccc"
       inkscape:connector-curvature="0"
       transform="translate(-10.217367,-13.883187)" />
  </g>
  <g
     inkscape:label="sic1 sim sic2"
     id="layer10"
     inkscape:groupmode="layer"
     style="display:inline">
    <g
       id="g4992"
       style="display:inline;opacity:1;vector-effect:none;fill:#c50000;fill-opacity:1;stroke:#cb2626;stroke-width:0.1;stroke-linecap:butt;stroke-linejoin:miter;stroke-miterlimit:10.43299961;stroke-dasharray:none;stroke-dashoffset:0;stroke-opacity:1"
       transform="matrix(2.0922957,0,0,2.0922957,-9.1901158,-155.74481)">
      <g
         word-spacing="normal"
         letter-spacing="normal"
         font-size-adjust="none"
         font-stretch="normal"
         font-weight="normal"
         font-variant="normal"
         font-style="normal"
         stroke-miterlimit="10.433"
         xml:space="preserve"
         transform="matrix(0.14842834,0,0,-0.14842834,-25.97496,183.25361)"
         id="content"
         style="font-style:normal;font-variant:normal;font-weight:normal;font-stretch:normal;letter-spacing:normal;word-spacing:normal;text-anchor:start;vector-effect:none;fill:#c50000;fill-opacity:1;fill-rule:evenodd;stroke:#cb2626;stroke-width:0.67372578;stroke-linecap:butt;stroke-linejoin:miter;stroke-miterlimit:10.43299961;stroke-dasharray:none;stroke-dashoffset:0;stroke-opacity:1"><path
           id="path4973"
           d="m 472.91,425.53 -6.37,1.54 c -3.1,0.75 -5.04,3.44 -5.04,6.33 0,3.49 2.69,6.53 6.58,6.53 8.31,0 9.41,-8.17 9.71,-10.42 0.04,-0.3 0.04,-0.59 0.6,-0.59 0.65,0 0.65,0.25 0.65,1.2 v 10 c 0,0.86 0,1.2 -0.55,1.2 -0.35,0 -0.41,-0.04 -0.75,-0.65 L 476,437.84 c -1.5,1.44 -3.54,3.48 -7.98,3.48 -5.53,0 -9.7,-4.39 -9.7,-9.67 0,-4.12 2.64,-7.76 6.51,-9.11 0.55,-0.2 3.1,-0.79 6.58,-1.64 1.34,-0.36 2.84,-0.7 4.23,-2.54 1.05,-1.3 1.55,-2.94 1.55,-4.58 0,-3.55 -2.48,-7.13 -6.67,-7.13 -1.45,0 -5.23,0.25 -7.88,2.69 -2.89,2.69 -3.04,5.87 -3.09,7.67 -0.05,0.5 -0.44,0.5 -0.59,0.5 -0.64,0 -0.64,-0.36 -0.64,-1.25 v -9.97 c 0,-0.84 0,-1.18 0.54,-1.18 0.35,0 0.39,0.09 0.74,0.64 0,0.04 0.15,0.2 1.79,2.84 1.55,-1.69 4.74,-3.48 9.18,-3.48 5.82,0 9.81,4.87 9.81,10.35 0,4.99 -3.28,9.07 -7.47,10.07 z"
           style="vector-effect:none;fill:#c50000;fill-opacity:1;stroke:#cb2626;stroke-width:0.67372578;stroke-linecap:butt;stroke-linejoin:miter;stroke-miterlimit:10.43299961;stroke-dasharray:none;stroke-dashoffset:0;stroke-opacity:1"
           inkscape:connector-curvature="0" /><path
           id="path4975"
           d="m 494.44,436.34 v 0.16 0.16 l 0.01,0.15 0.01,0.15 0.01,0.13 0.01,0.13 0.02,0.13 0.03,0.11 0.03,0.12 0.04,0.1 0.04,0.1 0.06,0.09 0.06,0.09 0.07,0.08 0.09,0.08 0.09,0.07 0.11,0.06 0.11,0.06 0.07,0.03 0.07,0.03 0.07,0.02 0.07,0.03 0.08,0.02 0.08,0.02 0.08,0.02 0.09,0.02 0.09,0.02 0.1,0.02 0.1,0.02 0.1,0.01 0.11,0.01 0.12,0.02 0.11,0.01 0.13,0.01 0.12,0.01 0.13,0.01 0.14,0.01 0.14,0.01 h 0.14 l 0.15,0.01 h 0.16 l 0.16,0.01 h 0.17 0.17 0.17 0.19 1.29 v 1.55 c -1.75,-0.16 -5.69,-0.16 -7.58,-0.16 -1.93,0 -5.87,0 -7.62,0.16 v -1.55 h 1.3 c 3.93,0 4.09,-0.54 4.09,-2.34 v -26.25 c 0,-1.8 -0.16,-2.34 -4.09,-2.34 h -1.3 v -1.55 c 1.75,0.16 5.69,0.16 7.58,0.16 1.93,0 5.87,0 7.62,-0.16 v 1.55 h -1.29 c -3.94,0 -4.1,0.54 -4.1,2.34 z"
           style="vector-effect:none;fill:#c50000;fill-opacity:1;stroke:#cb2626;stroke-width:0.67372578;stroke-linecap:butt;stroke-linejoin:miter;stroke-miterlimit:10.43299961;stroke-dasharray:none;stroke-dashoffset:0;stroke-opacity:1"
           inkscape:connector-curvature="0" /><path
           id="path4977"
           d="m 504.04,423.23 0.02,-0.96 0.07,-0.94 0.11,-0.93 0.16,-0.91 0.2,-0.89 0.24,-0.87 0.28,-0.85 0.32,-0.83 0.36,-0.81 0.39,-0.78 0.42,-0.76 0.46,-0.74 0.5,-0.7 0.52,-0.68 0.55,-0.66 0.58,-0.62 0.61,-0.59 0.64,-0.56 0.66,-0.53 0.68,-0.5 0.7,-0.46 0.73,-0.43 0.74,-0.39 0.77,-0.35 0.78,-0.32 0.79,-0.28 0.81,-0.23 0.83,-0.2 0.83,-0.15 0.85,-0.11 0.86,-0.07 0.86,-0.02 c 8.13,0 13,6.92 13,12.7 0,0.5 0,0.84 -0.64,0.84 -0.54,0 -0.54,-0.29 -0.59,-0.79 -0.41,-7.13 -5.73,-11.21 -11.17,-11.21 -3.03,0 -12.8,1.69 -12.8,16.53 0,14.91 9.72,16.6 12.75,16.6 5.44,0 9.87,-4.53 10.86,-11.82 0.11,-0.68 0.11,-0.84 0.8,-0.84 0.79,0 0.79,0.16 0.79,1.2 v 11.8 c 0,0.86 0,1.2 -0.54,1.2 -0.19,0 -0.39,0 -0.8,-0.59 l -2.49,-3.69 c -1.84,1.8 -4.38,4.28 -9.17,4.28 -9.31,0 -17.32,-7.92 -17.32,-18.09 z"
           style="vector-effect:none;fill:#c50000;fill-opacity:1;stroke:#cb2626;stroke-width:0.67372578;stroke-linecap:butt;stroke-linejoin:miter;stroke-miterlimit:10.43299961;stroke-dasharray:none;stroke-dashoffset:0;stroke-opacity:1"
           inkscape:connector-curvature="0" /><path
           id="path4979"
           d="m 548.91,420.92 v 0.04 0.04 0.05 0.04 0.03 0.04 0.04 0.03 l -0.01,0.04 v 0.03 0.03 0.03 0.03 l -0.01,0.03 v 0.03 l -0.01,0.02 v 0.03 0.02 l -0.01,0.03 v 0.02 l -0.02,0.04 -0.01,0.04 -0.02,0.03 -0.02,0.03 -0.02,0.03 -0.02,0.03 -0.03,0.02 -0.03,0.02 -0.04,0.02 -0.03,0.01 -0.04,0.01 -0.05,0.02 h -0.02 -0.03 l -0.02,0.01 h -0.03 l -0.03,0.01 h -0.02 -0.03 -0.03 -0.04 l -0.03,0.01 h -0.03 -0.04 -0.04 -0.03 -0.04 -0.04 -0.04 -0.05 -0.04 -0.05 c -2.23,-2.2 -5.39,-2.23 -6.83,-2.23 v -1.25 c 0.85,0 3.15,0 5.05,0.97 v -17.77 c 0,-1.16 0,-1.61 -3.48,-1.61 h -1.32 v -1.25 c 0.63,0.03 4.91,0.14 6.21,0.14 1.08,0 5.47,-0.11 6.23,-0.14 v 1.25 h -1.32 c -3.49,0 -3.49,0.45 -3.49,1.61 z"
           style="vector-effect:none;fill:#c50000;fill-opacity:1;stroke:#cb2626;stroke-width:0.67372578;stroke-linecap:butt;stroke-linejoin:miter;stroke-miterlimit:10.43299961;stroke-dasharray:none;stroke-dashoffset:0;stroke-opacity:1"
           inkscape:connector-curvature="0" /><path
           id="path4981"
           d="m 609.33,422.84 v 0.1 l -0.01,0.1 v 0.09 l -0.01,0.09 v 0.09 l -0.01,0.08 -0.01,0.08 -0.01,0.08 -0.02,0.07 -0.01,0.07 -0.02,0.07 -0.02,0.07 -0.02,0.06 -0.02,0.05 -0.02,0.06 -0.02,0.05 -0.02,0.04 -0.03,0.05 -0.02,0.04 -0.03,0.04 -0.03,0.03 -0.03,0.03 -0.03,0.03 -0.03,0.03 -0.03,0.02 -0.03,0.02 -0.03,0.02 -0.04,0.01 -0.03,0.01 -0.04,0.01 h -0.03 -0.04 c -0.25,0 -0.66,-0.34 -0.7,-1.29 -0.21,-4.78 -3.49,-7.52 -6.99,-7.52 -3.12,0 -5.51,2.14 -7.97,4.28 -2.53,2.3 -5.12,4.58 -8.51,4.58 -5.44,0 -8.38,-5.48 -8.38,-10.02 0,-1.59 0.66,-1.59 0.71,-1.59 0.54,0 0.7,1 0.7,1.16 0.19,5.47 3.94,7.67 6.97,7.67 3.14,0 5.53,-2.14 7.97,-4.3 2.54,-2.28 5.14,-4.58 8.51,-4.58 5.44,0 8.38,5.49 8.38,10.02 z"
           style="vector-effect:none;fill:#c50000;fill-opacity:1;stroke:#cb2626;stroke-width:0.67372578;stroke-linecap:butt;stroke-linejoin:miter;stroke-miterlimit:10.43299961;stroke-dasharray:none;stroke-dashoffset:0;stroke-opacity:1"
           inkscape:connector-curvature="0" /><path
           id="path4983"
           d="m 643.31,425.53 -6.38,1.54 c -3.09,0.75 -5.03,3.44 -5.03,6.33 0,3.49 2.69,6.53 6.58,6.53 8.31,0 9.41,-8.17 9.7,-10.42 0.05,-0.3 0.05,-0.59 0.61,-0.59 0.64,0 0.64,0.25 0.64,1.2 v 10 c 0,0.86 0,1.2 -0.54,1.2 -0.35,0 -0.41,-0.04 -0.75,-0.65 l -1.74,-2.83 c -1.5,1.44 -3.55,3.48 -7.98,3.48 -5.53,0 -9.7,-4.39 -9.7,-9.67 0,-4.12 2.63,-7.76 6.51,-9.11 0.55,-0.2 3.09,-0.79 6.58,-1.64 1.34,-0.36 2.84,-0.7 4.23,-2.54 1.05,-1.3 1.55,-2.94 1.55,-4.58 0,-3.55 -2.49,-7.13 -6.67,-7.13 -1.45,0 -5.24,0.25 -7.88,2.69 -2.89,2.69 -3.04,5.87 -3.09,7.67 -0.05,0.5 -0.44,0.5 -0.6,0.5 -0.63,0 -0.63,-0.36 -0.63,-1.25 v -9.97 c 0,-0.84 0,-1.18 0.54,-1.18 0.34,0 0.39,0.09 0.74,0.64 0,0.04 0.15,0.2 1.79,2.84 1.55,-1.69 4.74,-3.48 9.18,-3.48 5.82,0 9.81,4.87 9.81,10.35 0,4.99 -3.28,9.07 -7.47,10.07 z"
           style="vector-effect:none;fill:#c50000;fill-opacity:1;stroke:#cb2626;stroke-width:0.67372578;stroke-linecap:butt;stroke-linejoin:miter;stroke-miterlimit:10.43299961;stroke-dasharray:none;stroke-dashoffset:0;stroke-opacity:1"
           inkscape:connector-curvature="0" /><path
           id="path4985"
           d="m 664.84,436.34 v 0.16 0.16 l 0.01,0.15 v 0.15 l 0.02,0.13 0.01,0.13 0.02,0.13 0.03,0.11 0.03,0.12 0.04,0.1 0.04,0.1 0.06,0.09 0.06,0.09 0.07,0.08 0.09,0.08 0.09,0.07 0.11,0.06 0.11,0.06 0.07,0.03 0.06,0.03 0.07,0.02 0.08,0.03 0.08,0.02 0.08,0.02 0.08,0.02 0.09,0.02 0.09,0.02 0.1,0.02 0.1,0.02 0.1,0.01 0.11,0.01 0.11,0.02 0.12,0.01 0.12,0.01 0.13,0.01 0.13,0.01 0.14,0.01 0.14,0.01 h 0.14 l 0.15,0.01 h 0.16 l 0.16,0.01 h 0.16 0.18 0.17 0.18 1.3 v 1.55 c -1.75,-0.16 -5.69,-0.16 -7.58,-0.16 -1.93,0 -5.87,0 -7.62,0.16 v -1.55 h 1.29 c 3.94,0 4.1,-0.54 4.1,-2.34 v -26.25 c 0,-1.8 -0.16,-2.34 -4.1,-2.34 h -1.29 v -1.55 c 1.75,0.16 5.69,0.16 7.57,0.16 1.94,0 5.88,0 7.63,-0.16 v 1.55 h -1.3 c -3.93,0 -4.09,0.54 -4.09,2.34 z"
           style="vector-effect:none;fill:#c50000;fill-opacity:1;stroke:#cb2626;stroke-width:0.67372578;stroke-linecap:butt;stroke-linejoin:miter;stroke-miterlimit:10.43299961;stroke-dasharray:none;stroke-dashoffset:0;stroke-opacity:1"
           inkscape:connector-curvature="0" /><path
           id="path4987"
           d="m 674.43,423.23 0.03,-0.96 0.07,-0.94 0.11,-0.93 0.16,-0.91 0.2,-0.89 0.24,-0.87 0.28,-0.85 0.32,-0.83 0.35,-0.81 0.4,-0.78 0.42,-0.76 0.46,-0.74 0.5,-0.7 0.52,-0.68 0.55,-0.66 0.58,-0.62 0.61,-0.59 0.64,-0.56 0.65,-0.53 0.69,-0.5 0.7,-0.46 0.73,-0.43 0.74,-0.39 0.77,-0.35 0.78,-0.32 0.79,-0.28 0.81,-0.23 0.83,-0.2 0.83,-0.15 0.85,-0.11 0.86,-0.07 0.86,-0.02 c 8.13,0 13,6.92 13,12.7 0,0.5 0,0.84 -0.64,0.84 -0.55,0 -0.55,-0.29 -0.59,-0.79 -0.41,-7.13 -5.74,-11.21 -11.18,-11.21 -3.03,0 -12.79,1.69 -12.79,16.53 0,14.91 9.72,16.6 12.75,16.6 5.44,0 9.87,-4.53 10.86,-11.82 0.11,-0.68 0.11,-0.84 0.8,-0.84 0.79,0 0.79,0.16 0.79,1.2 v 11.8 c 0,0.86 0,1.2 -0.54,1.2 -0.19,0 -0.4,0 -0.8,-0.59 l -2.49,-3.69 c -1.84,1.8 -4.39,4.28 -9.17,4.28 -9.31,0 -17.33,-7.92 -17.33,-18.09 z"
           style="vector-effect:none;fill:#c50000;fill-opacity:1;stroke:#cb2626;stroke-width:0.67372578;stroke-linecap:butt;stroke-linejoin:miter;stroke-miterlimit:10.43299961;stroke-dasharray:none;stroke-dashoffset:0;stroke-opacity:1"
           inkscape:connector-curvature="0" /><path
           id="path4989"
           d="m 725.23,405.11 h -1.18 c -0.1,-0.77 -0.46,-2.83 -0.91,-3.18 -0.26,-0.2 -2.95,-0.2 -3.44,-0.2 h -6.42 c 3.66,3.23 4.88,4.2 6.97,5.84 2.58,2.07 4.98,4.22 4.98,7.54 0,4.21 -3.68,6.79 -8.15,6.79 -4.31,0 -7.25,-3.03 -7.25,-6.23 0,-1.78 1.5,-1.96 1.86,-1.96 0.83,0 1.84,0.6 1.84,1.85 0,0.62 -0.25,1.84 -2.06,1.84 1.08,2.47 3.45,3.24 5.09,3.24 3.49,0 5.3,-2.71 5.3,-5.53 0,-3.04 -2.16,-5.44 -3.28,-6.69 l -8.39,-8.3 c -0.36,-0.31 -0.36,-0.39 -0.36,-1.36 h 14.36 z"
           style="vector-effect:none;fill:#c50000;fill-opacity:1;stroke:#cb2626;stroke-width:0.67372578;stroke-linecap:butt;stroke-linejoin:miter;stroke-miterlimit:10.43299961;stroke-dasharray:none;stroke-dashoffset:0;stroke-opacity:1"
           inkscape:connector-curvature="0" /></g>    </g>
  </g>
</svg>
